PathFileType	4	(X/Y/Z)	C:/Users/dbak576/Desktop/Duncan Bakke Modelling Files/H27s1/Static_H27s1.trc	
DataRate	CameraRate	NumFrames	NumMarkers	Units	OrigDataRate	OrigDataStartFrame	OrigNumFrames	
200.00	200.00	4	61	mm	200.00	1510	70	
Frame#	Time	LFHD			RFHD			LBHD			RBHD			C7			T10			CLAV			STRN			RBack			LASI			RASI			LPSI			RPSI			RACR1			RUA1			RElbow			RElbowM			RFA1			RWRR			RWRU			RCAR			LACR1			LUA1			LElbow			LElbowM			LFA1			LWRR			LWRU			LCAR			RTH1			RTH3			RTH2			RTH4			RLFC			RMFC			RTB1			RTB3			RTB2			RTB4			RLMAL			RMMAL			RCAL			RMT1			RMT5			RToe			LTH1			LTH3			LTH2			LTH4			LLFC			LMFC			LTB1			LTB3			LTB2			LTB4			LLMAL			LMMAL			LCAL			LMT1			LMT5			LToe			
		X1	Y1	Z1	X2	Y2	Z2	X3	Y3	Z3	X4	Y4	Z4	X5	Y5	Z5	X6	Y6	Z6	X7	Y7	Z7	X8	Y8	Z8	X9	Y9	Z9	X10	Y10	Z10	X11	Y11	Z11	X12	Y12	Z12	X13	Y13	Z13	X14	Y14	Z14	X15	Y15	Z15	X16	Y16	Z16	X17	Y17	Z17	X18	Y18	Z18	X19	Y19	Z19	X20	Y20	Z20	X21	Y21	Z21	X22	Y22	Z22	X23	Y23	Z23	X24	Y24	Z24	X25	Y25	Z25	X26	Y26	Z26	X27	Y27	Z27	X28	Y28	Z28	X29	Y29	Z29	X30	Y30	Z30	X31	Y31	Z31	X32	Y32	Z32	X33	Y33	Z33	X34	Y34	Z34	X35	Y35	Z35	X36	Y36	Z36	X37	Y37	Z37	X38	Y38	Z38	X39	Y39	Z39	X40	Y40	Z40	X41	Y41	Z41	X42	Y42	Z42	X43	Y43	Z43	X44	Y44	Z44	X45	Y45	Z45	X46	Y46	Z46	X47	Y47	Z47	X48	Y48	Z48	X49	Y49	Z49	X50	Y50	Z50	X51	Y51	Z51	X52	Y52	Z52	X53	Y53	Z53	X54	Y54	Z54	X55	Y55	Z55	X56	Y56	Z56	X57	Y57	Z57	X58	Y58	Z58	X59	Y59	Z59	X60	Y60	Z60	X61	Y61	Z61	

44	0.215	-51.08408	-365.51917	1605.67297	42.74194	-365.12891	1600.67065	-82.13091	-520.00500	1560.36621	61.37710	-519.27704	1561.61011	-13.47032	-558.73889	1420.41431	-22.67675	-577.80176	1141.79382	-14.64010	-411.45743	1365.98840	-11.06371	-344.51587	1279.06189	89.11044	-594.94470	1314.27673	-146.92152	-308.20233	968.96545	139.97482	-331.37375	986.51050	-67.10151	-556.59283	976.54742	20.91745	-563.34686	979.40839	107.75552	-506.12262	1417.62561	280.03699	-521.52948	1391.66760	398.33102	-537.97186	1335.23413	397.07574	-458.70276	1284.15393	534.32617	-533.66425	1308.64563	648.95874	-505.03467	1378.45654	654.01965	-491.23358	1310.11340	705.90521	-539.07910	1344.50061	-139.81686	-508.00729	1417.03735	-308.63037	-512.84924	1397.76807	-433.91611	-508.19531	1359.11169	-431.95697	-454.38458	1310.60291	-562.33185	-498.35712	1346.42505	-676.76813	-470.33673	1420.61548	-682.53094	-452.61334	1355.44397	-733.49298	-489.36682	1392.21069	221.44795	-412.17981	756.11194	196.03552	-444.51028	588.78137	186.03958	-375.03226	665.83453	206.44246	-430.12030	671.41943	181.15572	-464.41525	504.31769	32.19566	-460.66437	484.61856	135.96071	-426.11084	344.48773	159.36784	-442.24185	174.84088	202.57040	-460.45032	269.11682	148.20135	-437.17514	255.41278	197.25420	-488.77097	65.43952	116.32770	-464.70966	61.84632	161.18701	-541.52295	24.99262	153.16727	-364.80212	33.37880	231.04346	-403.74506	28.19106	189.75235	-298.17572	27.51337	-244.74820	-410.09610	765.46985	-198.36971	-446.03934	605.16284	-199.49159	-372.86334	681.24744	-216.62164	-428.64944	687.13354	-177.34952	-469.33575	485.57321	-28.52991	-481.32660	473.75867	-118.62241	-433.32159	339.93738	-139.01672	-450.75153	169.41617	-184.24937	-465.62137	261.38556	-127.36921	-443.00027	254.12836	-172.52197	-496.50961	62.57691	-89.81180	-473.59790	57.03127	-132.95061	-553.45062	28.44973	-123.52111	-372.44800	27.57435	-199.04764	-410.94934	25.07623	-160.59454	-305.71829	22.57009 
45	0.220	-51.00087	-365.43732	1605.57800	42.73886	-365.31357	1600.66760	-82.16823	-520.13397	1560.39563	61.09705	-519.39764	1561.81335	-13.48013	-558.76056	1420.40625	-22.70239	-577.84595	1141.79492	-14.68097	-411.46289	1366.00134	-11.04684	-344.55722	1279.02905	89.08357	-595.00018	1314.29895	-146.89842	-308.20630	968.96039	140.00609	-331.38406	986.51202	-67.09055	-556.61072	976.53296	21.02705	-563.24310	979.33832	107.74986	-506.14246	1417.64294	279.97308	-521.65234	1391.76770	398.32794	-537.96350	1335.25806	396.99069	-458.82629	1284.22571	534.30634	-533.64429	1308.64600	648.94360	-505.01501	1378.48730	654.10846	-490.82697	1310.11182	705.85431	-539.07556	1344.53223	-139.76881	-507.95407	1416.99963	-308.67239	-512.89026	1397.76538	-433.91492	-508.22104	1359.10205	-431.98071	-454.31430	1310.69397	-562.25818	-498.38666	1346.71814	-676.77039	-470.30142	1420.62354	-682.27399	-452.53690	1355.12415	-733.52222	-489.57040	1392.34021	221.45013	-412.20853	756.12897	196.00575	-444.49527	588.79694	186.03273	-375.05258	665.83221	206.46155	-430.11975	671.41882	181.14130	-464.51859	504.29340	32.46000	-460.20688	484.33038	135.96803	-426.09497	344.48242	159.36948	-442.23615	174.84933	202.57373	-460.46103	269.11447	148.20836	-437.17813	255.42235	197.40176	-488.85266	65.72900	116.34362	-464.70532	61.85640	161.14276	-541.55078	25.02147	153.20773	-364.76022	33.48659	231.04678	-403.76825	27.96056	189.75148	-298.15912	27.50687	-244.74992	-410.11194	765.47668	-198.35811	-446.03531	605.17206	-199.48605	-372.86826	681.25116	-216.54498	-428.66528	687.10181	-177.41907	-469.34277	485.61798	-29.10750	-481.03635	473.70792	-118.61495	-433.30771	339.92999	-139.00140	-450.75595	169.41170	-184.24065	-465.63251	261.38034	-127.39137	-443.00757	254.13620	-172.52269	-496.50458	62.50579	-89.69335	-473.59421	56.87550	-133.05209	-553.41663	28.50424	-123.51881	-372.44342	27.57239	-199.08032	-410.95663	25.10795	-160.60361	-305.76071	22.59606 
46	0.225	-50.93492	-365.41837	1605.56616	42.80233	-365.39960	1600.63452	-82.23666	-520.26123	1560.43372	61.01757	-519.34924	1561.84875	-13.49147	-558.78564	1420.40735	-22.72826	-577.87659	1141.81091	-14.70637	-411.45148	1366.00500	-11.01993	-344.58435	1279.01184	89.06012	-595.04834	1314.31226	-146.87790	-308.20926	968.95612	140.02945	-331.40179	986.51392	-67.08148	-556.60974	976.54279	21.22127	-563.06970	979.24243	107.73964	-506.18088	1417.65332	279.91666	-521.73364	1391.80212	398.31909	-537.95026	1335.28699	396.91373	-458.92624	1284.27295	534.28650	-533.62567	1308.65112	648.92664	-504.99863	1378.49988	654.12372	-490.31918	1310.12048	705.80011	-539.05927	1344.56433	-139.71817	-507.93631	1416.93469	-308.68356	-512.85535	1397.76855	-433.90204	-508.23642	1359.10046	-432.03094	-454.27777	1310.73633	-562.13293	-498.51901	1347.23669	-676.76331	-470.27191	1420.62732	-681.99744	-452.43063	1354.83228	-733.57898	-489.85950	1392.49438	221.44637	-412.23532	756.14008	195.97267	-444.48502	588.79803	186.03778	-375.09680	665.78638	206.48454	-430.11688	671.41461	181.12910	-464.59766	504.29178	32.71363	-459.76877	484.00439	135.97025	-426.08981	344.47552	159.36450	-442.23120	174.85509	202.58195	-460.46786	269.10849	148.23669	-437.20819	255.39236	197.53210	-488.98074	66.00294	116.35843	-464.69852	61.86194	161.03894	-541.55621	25.07136	153.20375	-364.78583	33.51781	231.15413	-403.84241	27.82373	189.75406	-298.14618	27.49868	-244.75952	-410.14008	765.48425	-198.34908	-446.03336	605.17865	-199.47833	-372.86642	681.25836	-216.46472	-428.69540	687.06964	-177.48793	-469.35492	485.64514	-29.57725	-480.84564	473.78064	-118.60639	-433.29599	339.92200	-138.98441	-450.75894	169.40398	-184.23270	-465.64505	261.38019	-127.42329	-443.00586	254.11362	-172.51234	-496.49484	62.48245	-89.53273	-473.57974	56.73450	-133.19644	-553.42175	28.56420	-123.50233	-372.43985	27.56716	-199.07951	-410.96024	25.10993	-160.59325	-305.79904	22.67410 
47	0.230	-50.86556	-365.38898	1605.54285	42.88776	-365.45816	1600.67480	-82.31075	-520.35931	1560.46216	60.83478	-519.49231	1561.88977	-13.50686	-558.80994	1420.41357	-22.74794	-577.91394	1141.82800	-14.72408	-411.43729	1366.01941	-10.99134	-344.59430	1279.00830	89.05019	-595.07861	1314.31274	-146.85843	-308.21576	968.94495	140.04253	-331.42633	986.51697	-67.07684	-556.59735	976.56268	21.45377	-562.86542	979.14557	107.72459	-506.23111	1417.64136	279.84015	-521.82471	1391.84619	398.30753	-537.93475	1335.30920	396.85495	-458.98965	1284.28418	534.27063	-533.61072	1308.66797	648.92462	-504.99661	1378.49609	654.06238	-489.81320	1310.15283	705.75330	-539.03149	1344.60193	-139.66875	-507.91547	1416.90210	-308.66812	-512.82355	1397.75232	-433.89291	-508.24442	1359.10632	-432.08511	-454.27551	1310.72424	-562.18011	-498.63272	1347.50610	-676.74994	-470.25827	1420.61914	-681.57269	-452.23889	1354.72046	-733.69708	-490.18619	1392.61499	221.43973	-412.27490	756.15240	195.95259	-444.47626	588.79053	186.05534	-375.17029	665.70178	206.50992	-430.11267	671.40735	181.11908	-464.66452	504.29300	32.97743	-459.33755	483.59589	135.96228	-426.09836	344.47205	159.35648	-442.22635	174.85587	202.59570	-460.47757	269.09882	148.30243	-437.25833	255.29831	197.56000	-489.14243	66.07939	116.37322	-464.68924	61.86589	161.04523	-541.70172	25.11040	153.20265	-364.78995	33.56131	231.36597	-403.89847	27.77016	189.75798	-298.13376	27.48759	-244.75972	-410.17041	765.49921	-198.33487	-446.03708	605.18176	-199.46817	-372.86719	681.26508	-216.39087	-428.73447	687.03754	-177.53387	-469.37363	485.65411	-29.91272	-480.80005	473.96960	-118.59727	-433.29105	339.91895	-138.96916	-450.76288	169.39531	-184.22998	-465.65158	261.37964	-127.44229	-443.00424	254.10179	-172.49768	-496.48004	62.49032	-89.48370	-473.51266	56.65773	-133.23128	-553.50555	28.66207	-123.48280	-372.43979	27.56288	-199.08455	-410.97116	25.11142	-160.56664	-305.85718	22.76294 
